<?xml version="1.0" standalone="no"?>
<!DOCTYPE svg PUBLIC "-//W3C//DTD SVG 20010904//EN"
 "http://www.w3.org/TR/2001/REC-SVG-20010904/DTD/svg10.dtd">
<svg version="1.0" xmlns="http://www.w3.org/2000/svg"
 width="800.000000pt" height="800.000000pt" viewBox="0 0 800.000000 800.000000"
 preserveAspectRatio="xMidYMid meet">
<metadata>
Created by potrace 1.11, written by Peter Selinger 2001-2013
</metadata>
<g transform="translate(0.000000,800.000000) scale(0.100000,-0.100000)"
fill="#000000" stroke="none">
<path d="M0 4000 l0 -4000 4000 0 4000 0 0 4000 0 4000 -4000 0 -4000 0 0
-4000z m6350 2196 c300 -41 537 -129 755 -281 94 -65 205 -160 205 -175 0 -5
-55 -57 -122 -116 -68 -60 -176 -155 -241 -212 l-117 -104 -69 65 c-87 82
-142 120 -244 167 -282 130 -669 105 -919 -59 -364 -238 -561 -756 -561 -1476
-1 -535 95 -932 297 -1230 53 -79 186 -211 261 -260 88 -58 202 -104 313 -126
79 -17 122 -20 232 -16 159 6 274 34 397 96 94 47 139 79 226 161 l66 62 241
-212 c132 -116 240 -215 240 -220 0 -4 -28 -33 -62 -62 -277 -239 -599 -369
-989 -400 -414 -33 -814 68 -1132 284 -134 92 -335 295 -426 432 -206 311
-326 670 -372 1116 -17 161 -17 579 0 740 82 803 440 1390 1014 1665 177 86
410 153 582 168 103 9 330 5 425 -7z m-2785 -2196 c408 -1174 745 -2145 749
-2157 l7 -23 -364 0 c-338 0 -365 1 -372 18 -4 9 -69 197 -145 417 -76 220
-144 415 -150 433 l-12 32 -810 -2 -810 -3 -77 -225 c-43 -124 -113 -325 -156
-447 l-79 -223 -368 0 c-202 0 -368 1 -368 3 0 2 326 932 724 2067 398 1136
736 2103 751 2150 15 47 30 88 32 93 2 4 162 6 355 5 l350 -3 743 -2135z"/>
<path d="M2460 5015 c-6 -16 -49 -140 -95 -275 -46 -135 -185 -537 -309 -894
-125 -356 -225 -650 -223 -652 2 -2 290 -3 639 -2 l636 3 -309 905 c-170 498
-313 914 -318 925 -8 19 -10 18 -21 -10z"/>
</g>
</svg>
